<?xml version="1.0" standalone="no"?>
<!DOCTYPE svg PUBLIC "-//W3C//DTD SVG 20010904//EN"
 "http://www.w3.org/TR/2001/REC-SVG-20010904/DTD/svg10.dtd">
<svg version="1.0" xmlns="http://www.w3.org/2000/svg"
 width="677.000000pt" height="368.000000pt" viewBox="0 0 677.000000 368.000000"
 preserveAspectRatio="xMidYMid meet">

<g transform="translate(0.000000,368.000000) scale(0.100000,-0.100000)"
fill="#000000" stroke="none">
<path d="M1033 3209 c-11 -14 -139 -302 -241 -544 -229 -544 -322 -765 -463
-1101 -61 -146 -62 -129 11 -319 21 -55 57 -152 80 -215 127 -347 138 -370
172 -387 17 -9 499 -15 1788 -23 971 -7 2177 -15 2680 -19 503 -4 920 -6 926
-4 6 2 21 25 33 51 19 42 159 412 248 652 l34 95 -24 70 c-24 67 -133 355
-182 480 -13 33 -64 166 -113 295 -49 129 -106 278 -127 330 -155 398 -229
577 -240 589 -12 12 -122 16 -657 22 -354 5 -1012 13 -1463 20 -451 6 -1187
13 -1635 16 -692 5 -817 4 -827 -8z m4372 -565 c49 1 63 -7 46 -28 -7 -8 -8
-16 -4 -19 12 -7 53 11 53 23 0 17 32 11 54 -9 12 -11 28 -21 36 -23 62 -13
44 -124 -23 -148 -92 -31 -274 5 -332 68 -43 45 -47 64 -20 98 22 27 59 35
105 23 8 -2 19 6 25 19 6 15 11 18 13 9 2 -10 17 -14 47 -13z m-88 0 c-3 -3
-12 -4 -19 -1 -8 3 -5 6 6 6 11 1 17 -2 13 -5z"/>
<path d="M5524 2589 c-3 -6 -20 -19 -38 -30 l-31 -19 26 0 c14 0 47 3 73 6 38
6 44 9 34 21 -7 9 -21 12 -35 8 -24 -6 -33 9 -10 18 9 4 9 6 0 6 -6 1 -15 -4
-19 -10z"/>
<path d="M5270 2560 c0 -5 5 -10 11 -10 5 0 7 5 4 10 -3 6 -8 10 -11 10 -2 0
-4 -4 -4 -10z"/>
<path d="M5411 2531 c-10 -7 -10 -10 -1 -16 6 -4 16 -3 22 3 13 13 -4 23 -21
13z"/>
</g>
</svg>
